<svg id="Calque_1" data-name="Calque 1" xmlns="http://www.w3.org/2000/svg" viewBox="0 0 331.01 127.35"><defs><style>.cls-1{fill: #fff; fill-opacity: 0}</style></defs><title>lucia logo</title><path d="M257,94.68a53.85,53.85,0,0,1-1.08-6.59,44.08,44.08,0,0,1,.58-6l-.49-.18c-.39.52-1,1-1.14,1.59a58,58,0,0,0-1.34,6.39c-.77,5.6-1.16,11.27-2.16,16.82A92.88,92.88,0,0,1,244.51,129c-1.73,3.76-3.65,7.43-5.58,11.08-.69,1.32-1.5,2.56-3.46,2.43a2.19,2.19,0,0,1-2.33-2.21c-.7-4.74,1-9,2.54-13.34s3.15-8.79,4.81-13.14c1.42-3.71,3-7.35,4.44-11s2.67-7.4,4.22-11,1.47-7.33,1.61-11.08c0-.14-.15-.29-.29-.55a6.78,6.78,0,0,0-.84.61c-2.91,3-5.79,6-8.74,8.9-1.32,1.32-3.13,2.33-4.84,1.88-1.2-.31-2.24-1.84-3-3-.48-.77-.27-2-.45-2.93a10,10,0,0,0-.54-1.47l-.59-.08c-.75,1.58-1.58,3.13-2.21,4.76-.83,2.15-1.65,4.27-3.71,5.57-.35.22-.94.45-1.23.3s-.44-.78-.42-1.18A64.32,64.32,0,0,1,226.58,78c.85-2.8,1.57-5.65,2.23-8.5.43-1.87,1.58-3.24,2.87-3.18,1,0,1.44.51,1.28,1.45a12.8,12.8,0,0,1-.63,2.17c-1,2.68-2,5.34-3,8a7.28,7.28,0,0,0-.19,1.88l.52.31a6.7,6.7,0,0,0,1-1.32c1.34-3.19,2.6-6.4,3.94-9.58a12.34,12.34,0,0,1,1.59-2.81,1.62,1.62,0,0,1,1.53-.39,2,2,0,0,1,.71,1.6c-.45,3.32-1,6.62-1.55,9.93-.45,2.82-1.45,5.57-.74,8.52.44,1.84,1.05,2,2.67,1.11,2.47-1.3,2.45-3,2.25-5.52a22.65,22.65,0,0,1,1.53-8.77,34.45,34.45,0,0,1,8.68-13.45c.17-.17.31-.41.51-.48,1-.37,2-.7,3-1a13.07,13.07,0,0,1,.82,3c.12,3.28.05,6.56.08,9.85a5.82,5.82,0,0,0,.26,1.21l.58.08c.52-1.55,1-3.11,1.57-4.65.63-1.81,1.33-3.6,1.93-5.43a1.43,1.43,0,0,1,2.05-1,2.39,2.39,0,0,1,1.24,1.81A39.61,39.61,0,0,1,262.27,70a70.74,70.74,0,0,0-2.67,17.75c0,.47,0,.94,0,1.41a5.92,5.92,0,0,0,.32.9c.65-.82,1.19-1.42,1.63-2.08.63-.92,1.13-1.92,1.78-2.81a13.18,13.18,0,0,0,2.87-7.44c.07-3.55,2.15-6.18,3.8-9a16.11,16.11,0,0,1,2.46-3.37,2.26,2.26,0,0,1,2.13-.19c.39.21.58,1.42.36,2-1.31,3.36-2.89,6.62-4.11,10-.6,1.64-1.66,3.47.24,5.21.77.71,1.48,1.08,2.28.64A3.35,3.35,0,0,0,275,81.2c1.13-4.86,1.94-9.79,3.2-14.6A18.12,18.12,0,0,1,283,58.39c1.24-1.24,3.61-1.2,4.46,0a2.08,2.08,0,0,1,.47,1c.32,5,.1,10-2.15,14.68a25.89,25.89,0,0,1-5,7.09,7.62,7.62,0,0,0-1.51,2.51c-.19.46.08,1.11.15,1.68.57-.19,1.31-.21,1.67-.6a58.1,58.1,0,0,0,5.68-6.5c4.22-6.15,8.19-12.46,12.29-18.68,1.49-2.25,3-4.5,4.69-6.6.52-.64,1.67-.78,2.54-1.16.28.83.89,1.7.79,2.46-.6,4.19-1.19,8.4-2.15,12.51a84.9,84.9,0,0,1-3,9c-.4,1.13-.28,1.64,1,2.27a31.35,31.35,0,0,1,4.88,3.63,4,4,0,0,1,.69,1A10.71,10.71,0,0,0,310,81.62c4.37-4.55,9.85-7.46,15.35-10.3A29.64,29.64,0,0,1,343,68.4a7.46,7.46,0,0,1,6.52,7.15,7.11,7.11,0,0,1-.83,2.33l-.56-.14a16.16,16.16,0,0,0-.93-3.46,4.57,4.57,0,0,0-2.1-2.19,19.35,19.35,0,0,0-14.07-.23,63.22,63.22,0,0,0-16.92,9.47c-1,.75-2.17,1.55-2.56,2.59a6.39,6.39,0,0,0,.07,3.82c.62,2.18,1.69,4.23,2.37,6.39a50.33,50.33,0,0,1,1.88,23.17c-1,6.7-3.85,12.61-7,18.42a18.63,18.63,0,0,1-7.72,8.06c-4.45,2.19-9.36,3.32-14,.06a5,5,0,0,1-1.6-2.18,16.64,16.64,0,0,1-.73-8.69A86.42,86.42,0,0,1,289,116.44a100.63,100.63,0,0,1,9.1-18.22c2.25-3.71,4.74-7.26,7.18-10.84.68-1,.88-1.64-.42-2.35a22.14,22.14,0,0,1-2.66-2.23,1.9,1.9,0,0,0-2.68.33,10.12,10.12,0,0,1-2.4,2c-.74.33-2.07.44-2.51,0a2.55,2.55,0,0,1-.24-2.51c2.53-3.06,3.8-6.69,5-10.35,1.09-3.34,2.05-6.73,3-10.1a10.41,10.41,0,0,0,.19-1.68l-.53-.3c-.56.73-1.17,1.43-1.67,2.2-4.33,6.65-8.58,13.35-13,19.94a36.87,36.87,0,0,1-4.64,5.28c-2.54,2.53-5.37,2.21-7.56-.64a1.85,1.85,0,0,0-1.29-.56,30.71,30.71,0,0,1-4.18,0c-.86-.15-1.61-1-2.71-1.69-1,1.51-2,3.13-3.11,4.64a28.09,28.09,0,0,1-3.56,4.12C259.68,94.11,258.47,94.19,257,94.68Zm56.09,14.39c-.23-1.8-.37-3.63-.69-5.42a58.58,58.58,0,0,0-3.88-13.21,9.26,9.26,0,0,0-1-1.5,8.6,8.6,0,0,0-1.45,1.37c-1.12,1.63-2.2,3.3-3.19,5-2.56,4.4-5.3,8.72-7.52,13.29a133.26,133.26,0,0,0-5.26,13.25,40.28,40.28,0,0,0-2.22,14.24c.05,3.27,1.86,6.11,4.18,6.39a12,12,0,0,0,10.12-3.27c4.38-4.24,6.52-9.8,8.66-15.32C312.68,119.15,312.66,114.1,313.09,109.07Zm-64-7.92c-1.66.56-1.63,2-2.09,3.22-2.93,7.92-6,15.79-8.89,23.74a62.51,62.51,0,0,0-2.05,8.49c-.12.55.28,1.21.45,1.82C243.35,126.66,247.15,114.22,249.1,101.15Zm-4-20.42a34.05,34.05,0,0,0,7.07-16.22C248.89,65.75,243.67,77.56,245.12,80.73Zm39.42-18.29c-1.85,1.37-5.58,12.82-5,15C282.49,76.31,285.9,66.25,284.54,62.44Z" transform="translate(-18.55 -18.53)"/><path d="M218.29,90.07l2.46-2,.43.4c-.33,2.17-.9,4.29-3,5.55s-3.22.47-3.6-1.75c-.25-1.43-.25-1.43-1.64-1.4-1.89,3.1-4.05,5.71-8.16,5.88-1.65-2.06-.77-4.44-.71-7.1-.59.56-1.46,1-1.75,1.7a18.54,18.54,0,0,1-5.12,6.6,5.91,5.91,0,0,1-1.8.73c-.12-.62-.5-1.33-.33-1.86,1.37-4.26,2.94-8.47,4.25-12.75,1.21-3.95,2.17-8,3.25-12l-.63-.35c-.49.4-1.2.71-1.43,1.23-2.61,5.85-5.15,11.74-7.71,17.62-.94,2.18-1.72,4.46-2.87,6.53a15.71,15.71,0,0,1-3,3.29,1.21,1.21,0,0,1-1,0,3.14,3.14,0,0,1-.42-1.89c1.2-3.59,2.59-7.12,3.79-10.72,1.1-3.27,2-6.59,3-9.89q.93-3.06,1.85-6.13l-.51-.38A12.4,12.4,0,0,0,192.15,73a22,22,0,0,0-1.77,3,5.57,5.57,0,0,0-.58,2.17c-.19,7.47-3.64,13.52-8.36,18.95-1.7,2-3.61,3.71-5.49,5.48a9.54,9.54,0,0,1-7.51,2.37c-1.67-.11-3.54-2.13-3.76-3.87A20.26,20.26,0,0,1,166,91.9c.71-2.08,1.46-4.16,2.27-6.21A18.19,18.19,0,0,1,169.71,83c2.81-4.66,6-9,11.14-11.33a5.64,5.64,0,0,1,6.33.64c1,.88,1.9.91,2.69-.49,2.16-3.8,4.43-7.55,6.66-11.32.2-.34.38-.8.69-1a2.33,2.33,0,0,1,1.55-.24,1.43,1.43,0,0,1,.57,1.23c-.31,2.83,0,5.76-1.31,8.46-.33.66-.15,1.57-.24,2.84a8.27,8.27,0,0,0,1.21-1c1.46-2.18,2.84-4.42,4.36-6.55a2.47,2.47,0,0,1,1.71-.75c.21,0,.58.85.71,1.36,1.12,4.52,0,8.83-1.25,13.13a23,23,0,0,0-.54,2.89l.4.25a5.48,5.48,0,0,0,1-1.06c2-3.57,3.86-7.17,5.83-10.74.47-.83,1.07-2.1,2.2-1.4a2.87,2.87,0,0,1,.61,2.59c-1.09,3.57-2.51,7-3.62,10.6-1,3.35-1.87,6.76-2.75,10.16a.91.91,0,0,0,.44.78,1.06,1.06,0,0,0,.83-.41c3.09-4,6.12-8,7.54-13a91.86,91.86,0,0,1,3.23-8.9,6.72,6.72,0,0,1,1.71-2.41,1.77,1.77,0,0,1,1.72-.19,2.1,2.1,0,0,1,.36,1.82c-1,3.17-2.26,6.27-3.15,9.47s-1.53,6.62-2.24,9.94A7.21,7.21,0,0,0,218.29,90.07Zm-31.08-9.52a11.82,11.82,0,0,0-2,1.31c-2.27,2.37-4.5,4.79-6.71,7.22s-4.58,3.1-7.61,1.84c-.37-.16-1.39.24-1.46.53-.55,2.5-1,5-1.39,7.57a2.27,2.27,0,0,0,1.56,2.67,4.55,4.55,0,0,0,3.32-.29,32,32,0,0,0,8.19-7.64C184,89.89,186.58,85.93,187.21,80.55Zm-12.35,7.53a10.35,10.35,0,0,0,2.77-1.66c2.68-2.83,5.23-5.79,7.7-8.8.45-.54.71-1.87.37-2.28a4.2,4.2,0,0,0-2.52-1.16c-.6-.09-1.3.41-1.94.69-3.05,1.33-4.83,4-6.69,6.53a17,17,0,0,0-1.81,3.39A2.22,2.22,0,0,0,174.86,88.08Z" transform="translate(-18.55 -18.53)"/><path d="M122.41,108.83c-.32-.62-.92-1.22-.93-1.84A46.27,46.27,0,0,1,125,87.71c2.08-4.84,3.87-9.8,5.77-14.71,1.6-4.12,3.17-8.25,4.76-12.38l-.33-.52L124.73,62c-.93-2.25-.62-3.15,1.52-3.55,3-.57,6.1-.84,9.13-1.34a2,2,0,0,0,1.42-1c1.11-3.38,2.25-6.76,3-10.22.35-1.57,1.31-1.69,2.17-1.35a2.53,2.53,0,0,1,.95,2.2c-.34,1.9-1,3.72-1.56,5.59-.31,1.12-.52,2.27-.82,3.67,3,0,5.64-.12,8.32,0,4.4.24,8.79.69,13.19,1a23.42,23.42,0,0,1,9.33,2.84c3.31,1.73,4.29,5.08,3.19,8.71-1.71,5.62-5.37,9.82-9.57,13.6-4.76,4.28-9.62,8.48-14.67,12.42-6.7,5.23-13.62,10.18-20.44,15.25-3.19,2.38-6.31,4.86-9.55,7.16-4,2.86-8.13,5.53-12.15,8.38-2.83,2-5.54,4.16-8.32,6.24q-4.55,3.44-9.12,6.85c-1.34,1-2.7,2-4.13,2.81a1.75,1.75,0,0,1-1.47-.14,2.67,2.67,0,0,1,.14-1.79,5,5,0,0,1,1.48-1.4q10.49-7.54,21-15.06c4.57-3.25,9.2-6.4,13.77-9.66,1.38-1,2.56-2.23,4-3.21,2.94-2.07,6.08-3.87,8.91-6.07,6.09-4.72,12-9.62,18-14.46,2.79-2.24,5.64-4.42,8.31-6.79a42.56,42.56,0,0,0,9.51-11.16,13.31,13.31,0,0,0,1.33-5.15,4.5,4.5,0,0,0-1.24-2.75c-2.08-2.5-5.21-2.85-8.08-3.39a96.2,96.2,0,0,0-12.42-1.54,49.25,49.25,0,0,0-9.14.57,3.4,3.4,0,0,0-2.07,1.91c-1,2.36-1.59,4.89-2.56,7.27-1.83,4.47-4,8.83-5.71,13.34-2.14,5.55-4.21,11.15-5.91,16.85-1,3.18-1.09,6.6-1.6,9.9Z" transform="translate(-18.55 -18.53)"/><path d="M81.7,79.65c-2.86-1.56-3-1.64-4.63.88-1.34,2.16-2.14,4.66-3.48,6.82C71.35,91,70.83,95,70.39,99.12a5,5,0,0,0,2.2,5c1.29.83,4-.32,5.49-2a18.21,18.21,0,0,0,4.21-8.08A93.07,93.07,0,0,1,85.05,85c.27-.76,1.32-1.76,2-1.74,1.06,0,1.22,1.22,1,2.22-.56,2.69-1,5.42-1.77,8a15,15,0,0,0-.46,8.56c.81-.88,1.54-1.35,1.79-2,1.06-2.71,3.62-4.5,4.2-7.56a24.89,24.89,0,0,1,2.55-6.84,59,59,0,0,1,4.85-7.51c.4-.53,1.66-.61,2.5-.54.42,0,1,.8,1.13,1.33.31,1.12.37,2.31.57,3.47.08.5.12,1.18.44,1.44,1.26,1,1.29,2.1.85,3.57-1,3.19-1.82,6.43-2.55,9.69-1.07,4.79,1.29,7.57,6.13,7.43.44,0,.87.06,1.37.1-.93,2-3.52,2.31-6.34,1.84-2.66-.45-3.36-3.11-5.43-4a38.81,38.81,0,0,0-2.7,3.18,3.36,3.36,0,0,1-4,1.45c-1.5-.55-1.57-2.3-1.42-3.84a11.61,11.61,0,0,0-.16-1.61c-1,.94-1.72,1.56-2.39,2.21-2.38,2.3-3.84,2-5.29-1-.07-.15-.2-.28-.45-.65-.53.48-1,1-1.51,1.36A24.59,24.59,0,0,1,75.68,107c-4.85,2.34-7.76-.3-8.35-4.62A28.63,28.63,0,0,1,68,93.61c1-5.56,3.72-10.47,6.76-15.14a13.22,13.22,0,0,1,3.85-3.55c1.82-1.2,3.14.29,3.12,1.92C81.69,77.71,81.7,78.58,81.7,79.65Zm18.71,3.54-.64-.2a13.68,13.68,0,0,0-1.38,1.68A38.13,38.13,0,0,0,93,102.23a3.39,3.39,0,0,0,.45,1.21c.48-.23,1.13-.33,1.41-.71a22.6,22.6,0,0,0,2.85-4.37,15.16,15.16,0,0,0,1.6-6,13.38,13.38,0,0,1,.36-4.92A25.79,25.79,0,0,0,100.41,83.19Z" transform="translate(-18.55 -18.53)"/><path d="M21.76,114.67c2.32-.7,4.22-1,5.83-1.81,4.55-2.33,9-5,13.5-7.31,1-.53,2.53-1.2,3.85.09l-6.89,4.59c-3.95,2.65-7.9,5.29-12.53,6.67-.33.1-.64.3-1,.38-5.2,1.18-6.77-.12-5.65-5.28a118.34,118.34,0,0,1,4.05-14c2.22-6.3,4.76-12.5,7.22-18.71,1.64-4.13,3.49-8.17,5.07-12.32s2.9-8.25,4.3-12.39q1.56-4.59,3-9.21c.29-.94.28-2,.6-2.91a8.12,8.12,0,0,1,1.21-1.76c.53.65,1.55,1.33,1.51,1.94a20.56,20.56,0,0,1-1.06,5.12c-1.56,4.72-3.21,9.41-4.89,14.09-1.38,3.85-2.83,7.66-4.28,11.47-.45,1.19-1,2.33-1.53,3.48-1.93,4.34-4,8.62-5.76,13a122.67,122.67,0,0,0-6.15,19.83A40.22,40.22,0,0,0,21.76,114.67Z" transform="translate(-18.55 -18.53)"/><path d="M65,80.82c-.86,3.94-1.81,7.8-2.52,11.69-.56,3.11-.87,6.27-1.22,9.41-.13,1.19-.09,2.32,1.49,2.77.79.22,1,1,.07,1.56-2.35,1.36-3.67.53-4.24-2a4.58,4.58,0,0,0-.58-1.82,13.21,13.21,0,0,0-.92,1.46,12,12,0,0,1-4.9,5.75,1.54,1.54,0,0,1-2.37-.51,8.13,8.13,0,0,1-1.12-5.56c.64-5.66,1.43-11.3,2.16-16.95.14-1.11.19-2.24.41-3.33A3.2,3.2,0,0,1,52,81.64a2,2,0,0,1,1.55-.39c.25.06.52.87.47,1.3-.44,3.8-1,7.59-1.43,11.39-.35,3.28-.58,6.57-.79,9.87,0,.43.39.89.6,1.34.41-.21,1-.32,1.21-.65a28.43,28.43,0,0,0,2.69-4.84C58.4,94,60.5,88.23,61.57,82.19,61.92,80.2,62.26,80.07,65,80.82Z" transform="translate(-18.55 -18.53)"/><path d="M89.8,69.22a46,46,0,0,1,.46-5.64,76.71,76.71,0,0,1,2.17-8.13c1.46-4.52,3.17-9,4.57-13.49,2.06-6.67,4.68-13.19,5.33-20.23,0-.4.35-.8.31-1.17-.21-1.69.81-2.2,2.12-2s1.06,1.53.88,2.44a99.94,99.94,0,0,1-4.48,16.59c-2.52,6.62-4.78,13.35-7,20.07-1.23,3.68-2.18,7.44-3.27,11.16-.06.19-.26.34-.39.51Z" transform="translate(-18.55 -18.53)"/><path d="M228.92,55.42c0-1.49-.11-3,0-4.46.31-3.44.79-6.87,1.07-10.31.11-1.28.69-1.87,1.84-1.84A1.61,1.61,0,0,1,233.48,41c-.64,3.2-1.37,6.38-2.07,9.57-.26,1.14-.47,2.3-.81,3.41a9.88,9.88,0,0,1-.91,1.69Z" transform="translate(-18.55 -18.53)"/><path class="cls-1" d="M313.09,109.07c-.43,5-.41,10.08-2.24,14.83-2.14,5.52-4.28,11.08-8.66,15.32a12,12,0,0,1-10.12,3.27c-2.32-.28-4.13-3.12-4.18-6.39a40.28,40.28,0,0,1,2.22-14.24,133.26,133.26,0,0,1,5.26-13.25c2.22-4.57,5-8.89,7.52-13.29,1-1.71,2.07-3.38,3.19-5a8.6,8.6,0,0,1,1.45-1.37,9.26,9.26,0,0,1,1,1.5,58.58,58.58,0,0,1,3.88,13.21C312.72,105.44,312.86,107.27,313.09,109.07Z" transform="translate(-18.55 -18.53)"/><path class="cls-1" d="M249.1,101.15c-1.95,13.07-5.75,25.51-12.58,37.27-.17-.61-.57-1.27-.45-1.82a62.51,62.51,0,0,1,2.05-8.49c2.86-8,6-15.82,8.89-23.74C247.47,103.14,247.44,101.71,249.1,101.15Z" transform="translate(-18.55 -18.53)"/><path class="cls-1" d="M245.12,80.73c-1.45-3.17,3.77-15,7.07-16.22A34.05,34.05,0,0,1,245.12,80.73Z" transform="translate(-18.55 -18.53)"/><path class="cls-1" d="M284.54,62.44c1.36,3.81-2.05,13.87-5,15C279,75.26,282.69,63.81,284.54,62.44Z" transform="translate(-18.55 -18.53)"/><path class="cls-1" d="M187.21,80.55c-.63,5.38-3.18,9.34-6.06,13.21A32,32,0,0,1,173,101.4a4.55,4.55,0,0,1-3.32.29A2.27,2.27,0,0,1,168.08,99c.42-2.53.84-5.07,1.39-7.57.07-.29,1.09-.69,1.46-.53,3,1.26,5.48.49,7.61-1.84s4.44-4.85,6.71-7.22A11.82,11.82,0,0,1,187.21,80.55Z" transform="translate(-18.55 -18.53)"/><path class="cls-1" d="M174.86,88.08a2.22,2.22,0,0,1-2.12-3.29,17,17,0,0,1,1.81-3.39c1.86-2.53,3.64-5.2,6.69-6.53.64-.28,1.34-.78,1.94-.69a4.2,4.2,0,0,1,2.52,1.16c.34.41.08,1.74-.37,2.28-2.47,3-5,6-7.7,8.8A10.35,10.35,0,0,1,174.86,88.08Z" transform="translate(-18.55 -18.53)"/><path class="cls-1" d="M100.41,83.19a25.79,25.79,0,0,1-.73,4.26,13.38,13.38,0,0,0-.36,4.92,15.16,15.16,0,0,1-1.6,6,22.6,22.6,0,0,1-2.85,4.37c-.28.38-.93.48-1.41.71a3.39,3.39,0,0,1-.45-1.21,38.13,38.13,0,0,1,5.38-17.56A13.68,13.68,0,0,1,99.77,83Z" transform="translate(-18.55 -18.53)"/></svg>